
        <svg xmlns="http://www.w3.org/2000/svg" xmlns:xlink="http://www.w3.org/1999/xlink" version="1.1" width="3187.5" height="1388.2536536453715" viewBox="0 0 3187.5 1388.2536536453715">
			
			<g transform="scale(9.375) translate(10, 10)">
				<defs id="SvgjsDefs1688"/><g id="SvgjsG1689" featureKey="symbolFeature-0" transform="matrix(0.13932254751414186,0,0,0.13932254751414186,-19.26151439119261,-5.635683251922956)" fill="#000"><g xmlns="http://www.w3.org/2000/svg"><path d="M855.915,425.497c-1.062-61.604-10.203-101.956-10.572-103.557c-12.628-57.176-34.524-106.73-65.081-147.286   c-24.554-32.588-54.689-59.43-89.568-79.779c-54.638-31.876-103.138-37.61-112.324-38.438c-14.591-5.424-29.472-9.485-44.61-12.146   c-40.084-7.047-81.911-4.387-124.323,7.908c-71.754,20.801-119.836,61.598-121.848,63.325l-0.28,0.25   C235.5,163.73,196.57,222.595,171.599,290.733c-19.906,54.316-31.014,114.579-33.015,179.115   c-3.4,109.631,20.351,192.558,21.363,196.034l0.537-0.156c-0.693,8.543-1.097,18.384-0.876,29.247   c0.708,34.849,8.267,87.287,40.226,139.43c3.293,6.645,35.205,68.169,100.104,95.77l0.734,0.313l0.774,0.191   c0.757,0.188,16.438,3.995,40.424,3.995c3.887,0,7.995-0.101,12.29-0.332c27.305-1.472,67.72-8.782,107.641-34.813   c19.356,21.764,43.232,38.407,70.53,48.748c20.116,7.62,41.304,11.484,62.972,11.484c43.268,0,86.133-15.047,123.963-43.513   c38.32-28.834,68.022-69.017,85.897-116.203c18.273-48.241,22.362-99.173,12.157-146.352   C850.913,566.598,856.883,481.668,855.915,425.497z M415.543,809.408c-0.543,0.178-1.084,0.36-1.635,0.518   c-4.036,1.15-8.239,1.734-12.493,1.734c-15.593,0-32.235-7.828-46.862-22.041c-15.483-15.044-27.724-36.354-34.469-60.006   c-7.723-27.08-7.732-54.475-0.027-77.136c7.265-21.37,20.54-35.783,37.378-40.585c4.036-1.15,8.239-1.734,12.493-1.734   c15.593,0,32.235,7.828,46.863,22.041c4.658,4.526,9.012,9.632,13.019,15.188c-1.259,3.002-2.471,6.032-3.63,9.094   C407.053,706.972,403.465,760.411,415.543,809.408z M439.312,627.078c-2.75-3.251-5.612-6.335-8.584-9.223   c-18.381-17.86-39.974-27.697-60.8-27.697c-6.109,0-12.158,0.842-17.978,2.502c-23.337,6.654-41.389,25.611-50.829,53.379   c-9.001,26.477-9.098,58.104-0.271,89.059c7.689,26.964,21.811,51.421,39.765,68.865c18.381,17.86,39.973,27.697,60.8,27.697   c6.109,0,12.158-0.842,17.978-2.502c0.595-0.17,1.18-0.361,1.768-0.547c0.425,1.25,0.849,2.501,1.296,3.743   c6.737,18.726,15.654,35.813,26.459,50.986c-5.599,2.846-11.448,5.163-17.53,6.897c-8.769,2.5-17.88,3.768-27.083,3.768   c-64.42,0-128.558-60.947-152.504-144.92c-27.973-98.094,7.073-194.383,78.124-214.645c8.769-2.5,17.881-3.768,27.083-3.768   c38.613,0,77.114,21.912,106.93,57.539C454.7,600.3,446.459,613.3,439.312,627.078z M294.618,355.291   c-5.2,16.617-9.03,32.943-11.82,48.581l-85.607-12.064c12.038-66.174,38.869-141.59,96.452-198.598   c0.418-0.415,42.541-41.684,106.099-62.272c49.85-16.147,98.183-15.481,144.546,1.87c-66.613,16.076-121.859,44.338-164.521,84.235   C340.475,253.786,311.827,300.299,294.618,355.291z M191.915,572.814c-2.941-26.705-6.085-71.899-2.07-123.735   c0.917-11.848,2.25-24.436,4.134-37.527l85.771,12.087c-6.256,48.03-3.151,87.112-1.186,103.762   c-10.748,2.047-23.876,5.437-37.386,11.062C220.877,546.918,204.361,558.489,191.915,572.814z M476.941,572.536   c-5.185-6.011-10.619-11.682-16.292-16.947c-31.208-28.964-68.016-44.915-103.644-44.915c-11.058,0-22.015,1.525-32.567,4.535   c-8,2.281-15.654,5.377-22.928,9.215c-0.843,0.051-1.888,0.124-3.098,0.225c-2.567-22.741-7.397-90.877,15.292-163.384   c36.649-117.118,124.481-189.263,261.065-214.49c21.508,11.699,42.554,27.123,63.087,46.268   c3.462,4.068,35.65,42.71,60.365,100.567c22.915,53.646,43.516,134.643,15.245,220.865c-4.704-2.273-9.522-4.354-14.456-6.223   c-20.117-7.62-41.305-11.484-62.974-11.484c-43.264,0-86.129,15.047-123.961,43.515   C499.377,549.837,487.631,560.646,476.941,572.536z M747.325,424.13l29.413-4.55c-1.036,40.398-8.876,80.864-23.531,121.217   c-6.902-6.038-14.229-11.53-21.953-16.428C742.298,492.152,747.678,458.563,747.325,424.13z M768.803,556.165   c16.989-44.048,26.242-88.821,27.646-133.617l39.555,15.613c-0.117,48.148-5.797,113.959-28.29,182.871   C798.377,596.234,785.193,574.375,768.803,556.165z M680.615,112.151c74.579,43.51,123.431,115.545,145.218,214.19   c0.086,0.372,8.13,35.887,9.855,90.194l-39.167-15.46c-0.142-5.726-0.409-11.451-0.809-17.172   c-3.328-47.698-15.569-95.242-36.386-141.31c-35.387-78.315-82.787-124.728-84.787-126.665l-0.295-0.274   c-7.098-6.341-14.31-12.281-21.624-17.833C661.618,101.822,671.022,106.554,680.615,112.151z M158.574,470.467   c3.032-97.774,30.166-236.087,142.161-339.87c2.68-2.256,48.338-40.077,114.269-59.19c89.957-26.079,172.636-6.222,245.745,59.008   c2.683,2.648,47.382,47.445,80.353,120.413c22.203,49.138,34.063,98.756,35.587,148.521l-30.221,4.675   c-0.147-1.985-0.307-3.971-0.491-5.961c-3.431-36.945-13.31-74.732-29.362-112.312c-27.253-63.8-62.513-104.522-64-106.225   l-0.332-0.379l-0.369-0.345c-43.482-40.654-90.18-65.984-138.794-75.287c-39.058-7.474-79.277-4.649-119.542,8.395   c-68.043,22.042-112.171,65.266-114.011,67.091c-35.278,34.925-62.677,79.019-81.437,131.056   c-14.906,41.348-24.416,87.776-28.265,137.996c-5.812,75.835,2.949,136.335,5.317,150.738c-2.366,5.166-4.356,10.56-5.954,16.177   C163.111,580.507,156.755,529.13,158.574,470.467z M353.813,914.327c-25.015,1.438-43.145-2.104-46.856-2.906   c-59.552-25.754-89.053-85.586-89.339-86.179l-0.225-0.467l-0.271-0.441c-29.654-48.188-36.761-96.775-37.501-129.051   c-0.809-35.245,5.573-59.341,5.634-59.567l0.167-0.611l0.088-0.627c5.046-35.886,26.188-61.904,62.836-77.331   c6.685-2.813,13.312-5.008,19.551-6.729c-13.443,14.501-24.414,32.598-32.332,53.744c-16.799,44.863-17.863,98.279-2.998,150.408   c12.834,45.007,37.018,85.677,68.094,114.521c23.787,22.077,50.829,36.583,78.121,42.238   C369.621,913.004,361.186,913.903,353.813,914.327z M444.882,663.565c33.262-87.805,110.081-146.799,191.156-146.799   c19.24,0,38.044,3.428,55.89,10.188c14.986,5.677,28.655,13.48,40.888,23.023c-0.61-0.009-1.217-0.031-1.829-0.031   c-33.43,0-68.183,12.279-100.503,35.511c-32.582,23.42-60.3,56.376-80.156,95.305c-25.508,50.009-35.282,104.402-27.523,153.16   c7.72,48.511,31.823,85.914,68.029,105.767c-17.681-0.49-34.957-3.883-51.417-10.118   C445.242,893.896,402.834,774.567,444.882,663.565z M786.46,792.958c-27.181,71.751-83.449,124.256-147.356,141.06   c-12.755-1.262-24.824-4.755-35.992-10.451c-32.138-16.392-53.644-49.344-60.557-92.788c-7.099-44.61,1.988-94.66,25.589-140.929   c36.58-71.718,102.022-119.903,162.843-119.903c8.938,0,17.582,1.053,25.87,3.129C802.959,627.234,817.017,712.29,786.46,792.958z"/><path d="M746.125,633.482c-10.266-6.041-21.889-9.104-34.546-9.104c-40.606,0-85.243,31.268-113.719,79.657   c-18.04,30.655-27.223,64.212-25.858,94.488c1.437,31.859,14.283,56.499,36.174,69.381c10.266,6.041,21.889,9.104,34.546,9.104   c40.606,0,85.243-31.268,113.719-79.657c18.04-30.655,27.223-64.212,25.858-94.488   C780.862,671.004,768.016,646.364,746.125,633.482z M739.204,787.209c-24.568,41.749-63.342,69.8-96.482,69.8   c-9.042,0-17.252-2.134-24.402-6.341c-15.862-9.335-25.217-28.173-26.338-53.045c-1.191-26.453,7.018-56.088,23.115-83.445   c24.568-41.749,63.342-69.8,96.482-69.8c9.042,0,17.252,2.134,24.402,6.341c15.862,9.335,25.217,28.173,26.338,53.045   C763.511,730.217,755.302,759.852,739.204,787.209z"/></g></g><g id="SvgjsG1690" featureKey="nameFeature-0" transform="matrix(2.1968367173689582,0,0,2.1968367173689582,118.24252811202473,6.63796777183952)" fill="#000"><path d="M26.4 12.16 c-1.2 0.24 -2.08 1.28 -4.2 4.8 l-13.56 22.4 l4.48 0 c8.12 0 10.56 -1.6 12.96 -7.8 l0.16 0 l-1.28 8.44 l-24.16 0 c1.24 -0.52 2.68 -2.24 5 -6.08 l12.92 -21.28 l-3.96 0 c-7.56 0 -9.92 1.64 -12.4 7.88 l-0.16 0 l1.28 -8.52 l22.92 0 l0 0.16 z M48.04 36.08 l0.2 0.16 c-1.2 2.24 -4.44 4.04 -8.68 4.04 c-6.4 0 -10.76 -3.96 -10.76 -9.68 c0 -6.44 5.56 -10.24 11.52 -10.24 c8.64 0 9.36 8.52 4.24 8.52 l-10.56 0 c0.08 5.68 3.32 9.44 8.12 9.44 c1.92 0 4.68 -0.6 5.92 -2.24 z M39 21 c-2.72 0 -4.84 2.72 -5 7.2 l8.04 -0.08 c2.72 -0.04 1.6 -7.12 -3.04 -7.12 z M71.48 38.72 c0.56 0.36 1.6 0.64 2.24 0.72 l0 0.16 l-7.32 0.6 l0 -3.48 c-1.88 1.48 -5.04 3.56 -8.72 3.56 c-2.4 0 -5.8 -1.24 -5.8 -7.28 l0 -8.6 c0 -2.16 -0.36 -2.92 -2.16 -3.72 l0 -0.08 l7.48 0 l-0.24 2.76 l0 9.56 c0 4.48 1.6 5.48 3.36 5.48 c2.56 0 4.48 -1.36 6.08 -2.64 l0 -11.36 c0 -2.16 -0.36 -2.92 -2.16 -3.72 l0 -0.08 l7.48 0 l-0.24 2.76 l0 15.36 z M83.68 40.28 c-3.08 0 -6.36 -1.04 -7.96 -2.36 l2.52 -4.08 l0.08 0 c-0.12 3.48 3.56 5.76 6.88 5.76 c2.4 0 3.48 -1.12 3.48 -3 c0 -2.44 -1.8 -3.56 -5.2 -4.04 c-6.12 -0.8 -7.36 -4.2 -7.36 -6.44 c0 -3.6 3.36 -5.76 8.04 -5.76 c3.16 0 5.64 1 7.12 2.36 l-2.72 3.76 l-0.08 0 c0.24 -3.2 -2.84 -5.52 -5.76 -5.52 c-2.64 0 -3.08 1.8 -3.08 2.88 c0 2.52 2.2 3.44 4.92 3.92 c4.56 0.8 7.28 2.84 7.28 6.2 c0 3.64 -3.2 6.32 -8.16 6.32 z"/></g>
			</g>
		</svg>
	